Coordinates
version=1
nRows=32
nColumns=34
inDegrees=no

Units are S.I. units (second, meters, Newtons, ...)
If the header above contains a line with 'inDegrees', this indicates whether rotational values are in degrees (yes) or radians (no).

endheader
time	pelvis_tilt	pelvis_list	pelvis_rotation	pelvis_tx	pelvis_ty	pelvis_tz	hip_flexion_r	hip_adduction_r	hip_rotation_r	knee_angle_r	ankle_angle_r	subtalar_angle_r	mtp_angle_r	hip_flexion_l	hip_adduction_l	hip_rotation_l	knee_angle_l	ankle_angle_l	subtalar_angle_l	mtp_angle_l	lumbar_extension	lumbar_bending	lumbar_rotation	arm_flex_r	arm_add_r	arm_rot_r	elbow_flex_r	pro_sup_r	arm_flex_l	arm_add_l	arm_rot_l	elbow_flex_l	pro_sup_l
10.05	-0.425977	-0.15079	-0.0599792	-0.305417	0.745711	-0.487273	1.31893	0.0268893	-0.183242	1.29868	0.45566	-0.222137	-0.100417	1.44453	-0.462368	0.190729	1.29319	0.448857	0.162967	-0.100417	-0.395575	0.155195	0.0809968	0.816993	-0.517477	0.239502	2.17643	1.72909	0.747326	-0.434591	0.10313	2.23324	1.49105
10.06	-0.422347	-0.149965	-0.059819	-0.303623	0.750654	-0.487519	1.30289	0.0280159	-0.182565	1.28266	0.451651	-0.220504	-0.100417	1.42604	-0.463528	0.182732	1.27787	0.44557	0.161217	-0.100417	-0.389062	0.15415	0.0793799	0.803594	-0.517265	0.241008	2.17594	1.72557	0.727144	-0.431293	0.105237	2.23115	1.49177
10.07	-0.418267	-0.149213	-0.0598947	-0.301712	0.755799	-0.487735	1.28581	0.0296397	-0.18176	1.26579	0.447317	-0.219054	-0.100417	1.40646	-0.465206	0.17422	1.26183	0.442217	0.159893	-0.100417	-0.382639	0.152969	0.0780501	0.789724	-0.517028	0.242766	2.17536	1.7221	0.706466	-0.427738	0.107704	2.22853	1.49372
10.08	-0.413751	-0.148536	-0.0602197	-0.29968	0.761139	-0.487919	1.26768	0.0317907	-0.1808	1.24805	0.442641	-0.217852	-0.100417	1.38577	-0.467433	0.165129	1.24504	0.438813	0.159086	-0.100417	-0.376273	0.151652	0.0770261	0.775333	-0.516758	0.244717	2.17464	1.71896	0.685256	-0.423957	0.110497	2.22532	1.49675
10.09	-0.408824	-0.147901	-0.0607478	-0.297526	0.766665	-0.488076	1.24855	0.0344016	-0.179646	1.22943	0.437627	-0.216919	-0.100417	1.36399	-0.470136	0.155388	1.22749	0.435354	0.158835	-0.100417	-0.36991	0.150195	0.0762487	0.760381	-0.516435	0.246805	2.17376	1.7163	0.663462	-0.419992	0.113607	2.22155	1.50031
10.1	-0.403523	-0.147248	-0.0613771	-0.29525	0.772362	-0.488218	1.22845	0.0373188	-0.178262	1.20995	0.432293	-0.21624	-0.100417	1.34113	-0.473144	0.144935	1.20915	0.431812	0.159128	-0.100417	-0.36348	0.148607	0.0755866	0.744854	-0.516013	0.248977	2.17269	1.71414	0.641031	-0.415881	0.11703	2.21728	1.5036
10.11	-0.397884	-0.146516	-0.0619701	-0.292854	0.778218	-0.488365	1.20747	0.0403404	-0.176621	1.18966	0.426659	-0.215776	-0.100417	1.31721	-0.476224	0.133744	1.19	0.428139	0.159917	-0.100417	-0.356922	0.146917	0.0748644	0.728767	-0.515428	0.251192	2.17142	1.7124	0.617917	-0.41165	0.120748	2.21267	1.50571
10.12	-0.391945	-0.145663	-0.0623874	-0.290341	0.784216	-0.488535	1.18565	0.043271	-0.174714	1.1686	0.420732	-0.215487	-0.100417	1.29228	-0.479132	0.121844	1.17005	0.424272	0.161122	-0.100417	-0.350193	0.14518	0.0739051	0.71217	-0.51461	0.253433	2.16995	1.7109	0.594104	-0.407297	0.124707	2.20785	1.50574
10.13	-0.385741	-0.144679	-0.0625219	-0.287717	0.790342	-0.488745	1.16305	0.0459724	-0.172551	1.14679	0.414501	-0.215352	-0.100417	1.26638	-0.481662	0.109318	1.14926	0.420143	0.162648	-0.100417	-0.343275	0.143464	0.0725716	0.69514	-0.513508	0.255717	2.16829	1.7094	0.56962	-0.402793	0.12882	2.203	1.50298
10.14	-0.379311	-0.14359	-0.0623243	-0.284987	0.796581	-0.489005	1.13974	0.0483961	-0.170151	1.12423	0.407925	-0.215382	-0.100417	1.23961	-0.483685	0.0962975	1.12765	0.415692	0.164399	-0.100417	-0.336168	0.141851	0.070796	0.677768	-0.512107	0.258105	2.1665	1.70767	0.54455	-0.398084	0.132961	2.19826	1.49706
10.15	-0.372703	-0.142451	-0.0618134	-0.282161	0.802916	-0.489319	1.11578	0.0505889	-0.167537	1.10093	0.400946	-0.21561	-0.100417	1.21208	-0.48517	0.082932	1.10523	0.410872	0.166294	-0.100417	-0.328882	0.140415	0.0685941	0.660139	-0.510426	0.260678	2.16464	1.7056	0.519031	-0.393115	0.136987	2.1937	1.48805
10.16	-0.365974	-0.141332	-0.0610694	-0.279248	0.809332	-0.489679	1.09122	0.0526732	-0.164721	1.07684	0.393496	-0.216083	-0.100417	1.1839	-0.486172	0.0693588	1.08201	0.405657	0.168284	-0.100417	-0.321432	0.139211	0.0660668	0.64231	-0.508518	0.263506	2.16277	1.7032	0.49324	-0.387852	0.140762	2.18931	1.47659
10.17	-0.359177	-0.140301	-0.0602135	-0.276257	0.815811	-0.490074	1.06615	0.0548094	-0.161712	1.05196	0.385517	-0.216832	-0.100417	1.15519	-0.486813	0.0556723	1.05802	0.400047	0.170362	-0.100417	-0.313838	0.138273	0.0633843	0.624295	-0.506459	0.266612	2.16096	1.70066	0.467367	-0.382303	0.14419	2.18501	1.4639
10.18	-0.35236	-0.13941	-0.0593777	-0.2732	0.822335	-0.490492	1.04061	0.057147	-0.158518	1.02624	0.376977	-0.217851	-0.100417	1.12606	-0.487239	0.0419085	1.03331	0.394061	0.172566	-0.100417	-0.306122	0.137605	0.0607542	0.606059	-0.504333	0.269955	2.15931	1.69826	0.441597	-0.376514	0.147237	2.18064	1.45148
10.19	-0.345549	-0.138679	-0.0586729	-0.270085	0.828883	-0.490918	1.01464	0.0597755	-0.155156	0.999681	0.367889	-0.219066	-0.100417	1.09655	-0.487575	0.0280461	1.00792	0.387735	0.174955	-0.100417	-0.29832	0.13718	0.0583785	0.587537	-0.502227	0.273425	2.15786	1.69625	0.416096	-0.370559	0.149958	2.17602	1.4407
10.2	-0.33874	-0.138092	-0.0581639	-0.266919	0.835436	-0.491345	0.988259	0.06269	-0.151664	0.972322	0.358325	-0.220327	-0.100417	1.0667	-0.487883	0.0140199	0.981911	0.381108	0.177594	-0.100417	-0.290487	0.136948	0.0564129	0.568647	-0.500216	0.276863	2.1567	1.69478	0.391014	-0.364523	0.152488	2.17101	1.43247
10.21	-0.331894	-0.137594	-0.0578621	-0.263711	0.841975	-0.491773	0.961464	0.0657856	-0.148108	0.944223	0.348407	-0.221407	-0.100417	1.03649	-0.488147	-0.000256802	0.955339	0.374225	0.180535	-0.100417	-0.282708	0.136836	0.0549438	0.549327	-0.498358	0.280088	2.15588	1.69385	0.366476	-0.358494	0.15501	2.1655	1.42718
10.22	-0.32494	-0.137115	-0.0577408	-0.260466	0.848481	-0.492205	0.934224	0.0688909	-0.144579	0.915484	0.338301	-0.222019	-0.100417	1.00586	-0.488298	-0.0148651	0.928287	0.367127	0.183809	-0.100417	-0.275088	0.136769	0.0539897	0.52955	-0.496687	0.282921	2.15541	1.69336	0.342584	-0.352552	0.157703	2.15942	1.42479
10.23	-0.317797	-0.13659	-0.0577627	-0.25719	0.854935	-0.492647	0.906512	0.0718258	-0.141193	0.886228	0.32819	-0.221858	-0.100417	0.974764	-0.488254	-0.0298537	0.900852	0.359862	0.187434	-0.100417	-0.267738	0.136683	0.0535232	0.509338	-0.495203	0.285211	2.15529	1.69312	0.319407	-0.346762	0.160702	2.15276	1.42489
10.24	-0.31039	-0.135982	-0.0579004	-0.253887	0.861317	-0.493101	0.878317	0.0744483	-0.138083	0.856592	0.318251	-0.220629	-0.100417	0.943196	-0.487957	-0.0452141	0.873149	0.352479	0.191409	-0.100417	-0.260758	0.136538	0.0534906	0.488761	-0.493877	0.286839	2.15548	1.69297	0.296986	-0.341175	0.164065	2.14554	1.42694
10.25	-0.302663	-0.135291	-0.0581364	-0.250565	0.867604	-0.493568	0.849652	0.0766722	-0.135384	0.826717	0.308642	-0.218082	-0.100417	0.911184	-0.487376	-0.0608646	0.845306	0.345028	0.195706	-0.100417	-0.254228	0.13632	0.0538152	0.467939	-0.492651	0.287728	2.15593	1.69277	0.275332	-0.335823	0.167754	2.13783	1.43031
10.26	-0.29458	-0.134542	-0.0584483	-0.247229	0.873775	-0.494047	0.820559	0.078455	-0.133235	0.796749	0.299491	-0.214025	-0.100417	0.878807	-0.486488	-0.076646	0.817456	0.337562	0.200263	-0.100417	-0.248202	0.136046	0.0543879	0.447025	-0.491452	0.287845	2.15655	1.69249	0.254437	-0.33073	0.171628	2.12971	1.43443
10.27	-0.286127	-0.133775	-0.058792	-0.243887	0.879806	-0.494538	0.791111	0.0797759	-0.131773	0.766841	0.2909	-0.208331	-0.100417	0.846195	-0.485263	-0.0923313	0.789732	0.330127	0.204975	-0.100417	-0.242708	0.135746	0.0550574	0.426194	-0.490209	0.287213	2.15728	1.69211	0.234272	-0.325909	0.175455	2.1213	1.43882
10.28	-0.277312	-0.13303	-0.0590918	-0.24055	0.885673	-0.495043	0.761409	0.0806169	-0.131128	0.737149	0.282953	-0.200931	-0.100417	0.813519	-0.48365	-0.107652	0.762265	0.322771	0.209726	-0.100417	-0.237746	0.135456	0.0556341	0.405623	-0.488863	0.285908	2.15807	1.69159	0.214802	-0.321366	0.178943	2.11275	1.44311
10.29	-0.268158	-0.132338	-0.0592457	-0.237225	0.891353	-0.495565	0.731567	0.0809573	-0.131409	0.707829	0.275715	-0.19182	-0.100417	0.780972	-0.481593	-0.122342	0.735193	0.315541	0.21441	-0.100417	-0.233299	0.13521	0.0559123	0.385465	-0.487384	0.284058	2.15892	1.69075	0.195998	-0.317106	0.181791	2.10422	1.44698
10.3	-0.25869	-0.131717	-0.0591397	-0.233923	0.896826	-0.496109	0.701689	0.080783	-0.132691	0.679015	0.269231	-0.181063	-0.100417	0.748746	-0.479042	-0.136178	0.708651	0.308489	0.218971	-0.100417	-0.229348	0.135029	0.0557054	0.365835	-0.485774	0.281819	2.15989	1.68939	0.177854	-0.313133	0.183729	2.09588	1.45028
10.31	-0.24893	-0.131172	-0.0586654	-0.230652	0.902076	-0.49668	0.671855	0.0801033	-0.134995	0.6508	0.263516	-0.168805	-0.100417	0.717007	-0.475978	-0.149017	0.68277	0.301673	0.22341	-0.100417	-0.225883	0.134927	0.0548838	0.346785	-0.484062	0.279332	2.16107	1.68732	0.160401	-0.309448	0.184558	2.08784	1.45302
10.32	-0.2389	-0.130708	-0.057738	-0.227421	0.907091	-0.497284	0.642118	0.0789663	-0.138279	0.623224	0.258547	-0.155277	-0.100417	0.685885	-0.472429	-0.160817	0.657663	0.295151	0.227809	-0.100417	-0.222902	0.134915	0.0534061	0.328297	-0.482298	0.276691	2.16258	1.68446	0.143713	-0.306049	0.184172	2.08016	1.45536
10.33	-0.228639	-0.130341	-0.0563148	-0.224238	0.911862	-0.497922	0.612523	0.0774748	-0.142437	0.596272	0.254244	-0.14079	-0.100417	0.655493	-0.468492	-0.171648	0.633427	0.288983	0.232325	-0.100417	-0.220389	0.135014	0.0513339	0.310281	-0.480545	0.273916	2.16458	1.68088	0.1279	-0.302925	0.182572	2.07283	1.45745
10.34	-0.218222	-0.130104	-0.0544105	-0.22111	0.91638	-0.498593	0.583132	0.0757975	-0.147302	0.569881	0.250475	-0.125716	-0.100417	0.625942	-0.464343	-0.181694	0.610142	0.283234	0.237206	-0.100417	-0.218299	0.135266	0.048828	0.292598	-0.478867	0.270958	2.1672	1.67685	0.113087	-0.300053	0.179846	2.06584	1.45935
10.35	-0.20777	-0.130063	-0.0521012	-0.218044	0.920637	-0.49929	0.55404	0.0741643	-0.152666	0.54396	0.247059	-0.110456	-0.100417	0.597357	-0.46024	-0.19123	0.587877	0.277971	0.242768	-0.100417	-0.216542	0.135739	0.0461181	0.275098	-0.477318	0.267732	2.17052	1.67281	0.0993799	-0.297403	0.17615	2.05912	1.46106
10.36	-0.19743	-0.130298	-0.0495056	-0.215047	0.924623	-0.500002	0.525383	0.0728313	-0.158306	0.518421	0.2438	-0.0953812	-0.100417	0.569874	-0.456481	-0.200575	0.566685	0.273259	0.24936	-0.100418	-0.21499	0.13652	0.043455	0.257649	-0.475937	0.264148	2.17458	1.66924	0.08685	-0.294945	0.171679	2.05263	1.46245
